<svg width="30" height="30" viewBox="0 0 33 33" fill="none" 
    xmlns="http://www.w3.org/2000/svg">
    <g clip-path="url(#clip0)">
        <path d="M23 26V16L31 22.25L23 26Z" fill="white"/>
        <path d="M23 16L23.6156 15.212C23.3144 14.9766 22.9052 14.9336 22.5616 15.1012C22.218 15.2688 22 15.6177 22 16H23ZM23 26H22C22 26.3421 22.1749 26.6604 22.4635 26.8439C22.7522 27.0274 23.1147 27.0506 23.4244 26.9055L23 26ZM31 22.25L31.4244 23.1555C31.7391 23.0079 31.9547 22.7076 31.9937 22.3622C32.0327 22.0168 31.8895 21.676 31.6156 21.462L31 22.25ZM22 16V26H24V16H22ZM23.4244 26.9055L31.4244 23.1555L30.5756 21.3445L22.5756 25.0945L23.4244 26.9055ZM31.6156 21.462L23.6156 15.212L22.3844 16.788L30.3844 23.038L31.6156 21.462Z" fill="black"/>
        <path d="M17.4706 2.74447C16.7114 2.41814 15.6975 2.54434 14.5943 3.28061C13.5004 4.0106 12.4381 5.27682 11.7276 6.92995C11.0171 8.58308 10.8293 10.2252 11.0524 11.5212C11.2773 12.8284 11.8834 13.6508 12.6427 13.9772C13.4019 14.3035 14.4158 14.1773 15.519 13.441C16.6129 12.711 17.6752 11.4448 18.3857 9.79168C19.0962 8.13855 19.284 6.49644 19.0609 5.20043C18.836 3.89328 18.2299 3.07081 17.4706 2.74447Z" fill="white" stroke="black" stroke-width="2"/>
        <path d="M26.0205 21.7984C24.9354 26.5626 19.3958 29.7699 12.8055 28.4135C6.16939 27.0477 2.1575 21.8282 3.23426 17.1009C4.30857 12.3843 10.2079 9.21352 16.8257 10.5557C24.3994 12.8802 26.9422 17.7519 26.0205 21.7984Z" fill="#FFC700"/>
        <path d="M26.0205 21.7984C24.9354 26.5626 19.3958 29.7699 12.8055 28.4135C6.16939 27.0477 2.1575 21.8282 3.23426 17.1009C4.30857 12.3843 10.2079 9.21352 16.8257 10.5557C24.3994 12.8802 26.9422 17.7519 26.0205 21.7984Z" fill="url(#paint0_linear)"/>
        <path class="shake" d="M26.0205 21.7984C24.9354 26.5626 19.3958 29.7699 12.8055 28.4135C6.16939 27.0477 2.1575 21.8282 3.23426 17.1009C4.30857 12.3843 10.2079 9.21352 16.8257 10.5557C24.3994 12.8802 26.9422 17.7519 26.0205 21.7984Z" stroke="black" stroke-width="2"/>
        <path d="M13.1319 27.3955C12.583 27.3341 12.079 27.7282 12.0062 28.2756C11.9333 28.8231 12.3192 29.3166 12.8681 29.378L13.1319 27.3955ZM15.4459 10.0087C14.897 9.94736 14.393 10.3414 14.3202 10.8889C14.2473 11.4363 14.6332 11.9299 15.182 11.9912L15.4459 10.0087ZM21.0062 20.3889C20.713 22.5921 19.7713 24.4688 18.4109 25.7223C17.0657 26.9618 15.2694 27.6345 13.1319 27.3955L12.8681 29.378C15.5936 29.6827 17.9778 28.8127 19.7571 27.1732C21.5212 25.5477 22.648 23.2091 22.9938 20.6111L21.0062 20.3889ZM15.182 11.9912C17.3317 12.2316 18.9025 13.2553 19.8826 14.7183C20.8731 16.1969 21.2993 18.1869 21.0062 20.3889L22.9938 20.6111C23.3397 18.0119 22.8544 15.5238 21.5579 13.5886C20.251 11.6378 18.1592 10.3121 15.4459 10.0087L15.182 11.9912Z" fill="black"/>
        <path d="M8.86332 25.8865C8.34575 25.6986 7.76447 25.9652 7.56499 26.4819C7.36552 26.9987 7.62338 27.57 8.14095 27.7579L8.86332 25.8865ZM12.5428 9.35262C12.0019 9.24128 11.4639 9.58756 11.3413 10.1261C11.2186 10.6645 11.5577 11.1913 12.0987 11.3027L12.5428 9.35262ZM16.3502 20.0223C16.0228 21.4597 15.3611 23.4489 14.1623 24.8035C13.578 25.4637 12.8908 25.9454 12.0704 26.1667C11.2529 26.3872 10.2079 26.3747 8.86332 25.8865L8.14095 27.7579C9.79532 28.3586 11.2688 28.4366 12.5631 28.0875C13.8546 27.7392 14.8727 26.9914 15.6612 26.1006C17.2077 24.3531 17.9609 21.9542 18.3091 20.4255L16.3502 20.0223ZM12.0987 11.3027C15.2121 11.9435 17.3373 15.6886 16.3502 20.0223L18.3091 20.4255C19.4526 15.4053 17.0926 10.2891 12.5428 9.35262L12.0987 11.3027Z" fill="black"/>
        <path d="M26.4682 6.35227C26.9454 7.02699 27.033 8.04489 26.5424 9.27722C26.0561 10.499 25.0386 11.8016 23.5696 12.8406C22.1005 13.8796 20.5334 14.405 19.2194 14.4565C17.894 14.5085 16.9634 14.0868 16.4862 13.4121C16.009 12.7374 15.9215 11.7195 16.412 10.4872C16.8984 9.26534 17.9158 7.9628 19.3849 6.92379C20.8539 5.88478 22.421 5.35941 23.7351 5.30787C25.0604 5.25588 25.991 5.67755 26.4682 6.35227Z" fill="white" stroke="black" stroke-width="2"/>
        <circle cx="9.78343" cy="16.7834" r="1" transform="rotate(12.217 9.78343 16.7834)" fill="black" stroke="black"/>
    </g>
    <defs>
        <linearGradient id="paint0_linear" x1="17.093" y1="9.58991" x2="11.4095" y2="29.1192" gradientUnits="userSpaceOnUse">
            <stop stop-color="#FFE073"/>
            <stop offset="1" stop-color="#FFA800"/>
        </linearGradient>
        <clipPath id="clip0">
            <path d="M0 0H33V33H0V0Z" fill="white"/>
        </clipPath>
    </defs>
</svg>
