<?xml version="1.0"?>
<svg xmlns="http://www.w3.org/2000/svg" width="208" height="32">
<path fill="#336699" d="m 199.51,0 0,0.7612 1.33,0 0,3.7283 0.92,0 0,-3.7283 1.33,0 0,-0.7612 -3.58,0 z m 4.15,0 0,4.4895 0.84,0 0,-3.5381 0.89,3.5381 0.87,0 0.9,-3.5381 0,3.5381 0.84,0 L 208,0 206.63,0 205.83,3.0624 205.01,0 203.66,0 z m -159.61,0.7433 0,31.1877 9.686,0 0,-11.571 5.275,0 c 3.881,0 6.772,-0.894 8.675,-2.664 1.884,-1.77 2.837,-4.226 2.837,-7.385 0,-3.0637 -0.879,-5.4208 -2.611,-7.0762 C 66.181,1.5794 63.557,0.7433 60.075,0.7433 l -16.025,0 z m 36.385,0 -11.72,31.1877 9.853,0 1.504,-5.161 10.977,0 1.522,5.161 10.089,0 -11.724,-31.1877 -10.501,0 z m 18.457,0 12.158,18.1297 0,13.076 9.66,0 0,-13.076 12.13,-18.1297 -10.64,0 -6.3,10.5187 -6.3,-10.5187 -10.708,0 z m -45.156,6.3328 2.742,0 c 1.807,0 3.027,0.3437 3.674,1.0287 0.666,0.685 0.987,1.502 0.987,2.4912 0,1.009 -0.381,1.827 -1.123,2.474 -0.762,0.647 -2.054,0.975 -3.919,0.975 l -2.361,0 0,-6.9689 z M 15.912,8.8124 c -1.693,0 -3.125,0.2842 -4.305,0.8741 -1.18,0.5895 -2.3594,1.5605 -3.5201,2.9495 l 0,-3.2944 -8.0869,0 0,22.6254 8.6815,0 0,-11.53 c 0,-1.712 0.3045,-2.949 0.9514,-3.71 0.6471,-0.742 1.4601,-1.124 2.4501,-1.124 0.609,0 1.143,0.169 1.599,0.511 0.438,0.343 0.761,0.803 0.952,1.374 0.114,0.362 0.172,1.026 0.172,2.016 l 0,12.445 8.676,0 0,-11.666 c 0,-1.637 0.305,-2.814 0.933,-3.556 0.628,-0.742 1.465,-1.106 2.474,-1.106 0.856,0 1.58,0.379 2.17,1.159 0.4,0.495 0.589,1.256 0.589,2.284 l 0,12.867 8.676,0 0,-14.199 c 0,-3.064 -0.664,-5.309 -2.034,-6.755 -1.351,-1.4463 -3.256,-2.1646 -5.673,-2.1646 -1.655,0 -3.022,0.264 -4.144,0.7968 C 25.35,10.123 24.089,11.153 22.738,12.618 22.073,11.362 21.216,10.411 20.17,9.7638 19.123,9.1359 17.72,8.8124 15.912,8.8124 z m 69.678,0.018 3.443,11.2086 -6.868,0 3.425,-11.2086 z"/>
<path fill="#009966" d="m 163.24,31.815 h -29.43 c 0.34,-2.569 1.37,-4.985 3.08,-7.25 1.71,-2.264 4.93,-4.928 9.63,-8.011 2.87,-1.883 4.72,-3.31 5.52,-4.3 0.8,-0.989 1.21,-1.903 1.21,-2.797 0,-0.9514 -0.4,-1.7696 -1.19,-2.4356 -0.8,-0.666 -1.81,-1.0085 -3.01,-1.0085 -1.26,0 -2.28,0.3425 -3.08,1.0465 -0.8,0.6851 -1.34,1.9219 -1.6,3.6916 l -9.84,-0.704 c 0.38,-2.4357 1.1,-4.3385 2.13,-5.7086 1.03,-1.37 2.48,-2.4165 4.36,-3.1396 1.86,-0.7421 4.45,-1.1036 7.78,-1.1036 3.45,0 6.15,0.3425 8.07,1.0465 1.92,0.7041 3.42,1.7696 4.53,3.1967 1.1,1.4462 1.65,3.0635 1.65,4.8522 0,1.9024 -0.62,3.7104 -1.88,5.4424 -1.26,1.731 -3.56,3.634 -6.87,5.708 -1.98,1.199 -3.29,2.055 -3.96,2.531 -0.66,0.475 -1.46,1.103 -2.36,1.883 h 15.34 v 7.06 l -0.1,0 m 21.09,-5.823 H 166.44 V 18.876 L 184.33,0.1142 h 8.56 V 19.275 h 4.43 v 6.717 h -4.43 v 5.823 h -8.56 v -5.823 l 0,0 m 0,-6.736 V 9.457 l -9.46,9.799 h 9.46 l 0,0 z"/>
</svg>