<svg width="91" height="91" viewBox="0 0 91 91" fill="none" xmlns="http://www.w3.org/2000/svg">
<path fill-rule="evenodd" clip-rule="evenodd" d="M13.3626 16.1669H45.2331C45.8447 16.1669 46.4228 16.4463 46.8028 16.9256C47.1827 17.4048 47.3229 18.0315 47.1833 18.627C44.8688 28.5039 36.2856 65.1305 34.4132 73.121C34.201 74.0267 33.3933 74.6672 32.463 74.6672C30.0995 74.6672 25.6332 74.6672 22.8177 74.6672C22.2062 74.6672 21.6281 74.3878 21.2481 73.9085C20.8683 73.4293 20.728 72.8026 20.8677 72.2071C23.0627 62.8401 30.7756 29.9267 30.7756 29.9267H11.0939C10.4829 29.9267 9.9052 29.6478 9.52536 29.1694C9.14531 28.6909 9.0045 28.0651 9.14291 27.47C9.80039 24.6437 10.8597 20.0887 11.4116 17.7161C11.6226 16.809 12.4311 16.1669 13.3626 16.1669Z" fill="#656565"/>
<path fill-rule="evenodd" clip-rule="evenodd" d="M77.2264 74.6679L45.3559 74.6679C44.7442 74.6679 44.1662 74.3884 43.7861 73.9092C43.4063 73.4299 43.2661 72.8033 43.4057 72.2078C45.7202 62.3309 54.3033 25.7043 56.1758 17.7137C56.388 16.808 57.1957 16.1676 58.126 16.1676C60.4895 16.1676 64.9558 16.1676 67.7713 16.1676C68.3828 16.1676 68.9608 16.447 69.3409 16.9263C69.7207 17.4055 69.8609 18.0322 69.7213 18.6276C67.5263 27.9947 59.8134 60.9081 59.8134 60.9081L79.495 60.9081C80.1061 60.9081 80.6838 61.1869 81.0636 61.6654C81.4437 62.1438 81.5845 62.7697 81.4461 63.3648C80.7886 66.1911 79.7293 70.746 79.1774 73.1187C78.9664 74.0258 78.1579 74.6679 77.2264 74.6679Z" fill="#656565"/>
</svg>
