<svg width="60" height="60" viewBox="0 0 60 60" fill="none" xmlns="http://www.w3.org/2000/svg">
<rect width="60" height="60" rx="12" fill="#005F4F"/>
<mask id="mask0" mask-type="alpha" maskUnits="userSpaceOnUse" x="0" y="0" width="60" height="60">
<rect width="60" height="60" rx="12" fill="white"/>
</mask>
<g mask="url(#mask0)">
<path d="M10.401 82C10.401 82 8.19049 44.9016 29.1905 37.123C50.1905 29.3443 71.1905 9 71.1905 9" stroke="#137867"/>
<path d="M-3.60243 70C-3.60243 70 -5.77672 33.4098 14.879 25.7377C35.5348 18.0656 56.1905 -2 56.1905 -2" stroke="#137867"/>
<path d="M-12.6024 58C-12.6024 58 -14.7767 20.3934 5.87901 12.5082C26.5348 4.62295 47.1905 -16 47.1905 -16" stroke="#137867"/>
<path d="M25.3976 91C25.3976 91 23.2233 53.3934 43.879 45.5082C64.5348 37.623 85.1905 17 85.1905 17" stroke="#137867"/>
<mask id="mask1" mask-type="alpha" maskUnits="userSpaceOnUse" x="43" y="26" width="6" height="7">
<path fill-rule="evenodd" clip-rule="evenodd" d="M43.7704 26.9772H48.113V32.4944H43.7704V26.9772Z" fill="white"/>
</mask>
<g mask="url(#mask1)">
<path fill-rule="evenodd" clip-rule="evenodd" d="M44.0415 30.1923C43.2755 28.7998 44.218 27.0833 45.8035 26.9818C47.323 26.8848 48.4675 28.3423 48.012 29.7953L47.474 31.5118C47.105 32.6898 45.5035 32.8498 44.908 31.7678L44.0415 30.1923Z" fill="white"/>
</g>
<path fill-rule="evenodd" clip-rule="evenodd" d="M28.4854 34.0546C26.8709 32.6816 26.4084 30.1111 27.6204 29.2476C28.7809 28.4196 30.7474 29.6976 31.4159 31.7136L32.2059 34.0956C32.7484 35.7311 31.5664 36.6746 30.3124 35.6081L28.4854 34.0546Z" fill="white"/>
<path fill-rule="evenodd" clip-rule="evenodd" d="M33.3701 17.7123L33.0651 14.0868C32.9731 12.9948 34.0591 12.0273 35.3661 12.0368L45.9956 12.1133C46.9701 12.1198 47.7766 12.6788 47.9611 13.4743L47.9801 13.5578C48.1896 14.4638 47.5331 15.3968 46.4656 15.7133L36.0401 18.8008C34.8996 19.1388 33.7046 18.6518 33.3701 17.7123Z" fill="white"/>
<path fill-rule="evenodd" clip-rule="evenodd" d="M46.1694 16.9584C47.0449 16.6184 47.9589 17.5434 47.9659 18.7764L47.9924 23.7264C47.9999 25.0414 47.0124 25.8849 46.0889 25.3524L40.5164 22.1404C39.7954 21.7249 39.7629 20.3804 40.4654 20.0054L46.1694 16.9584Z" fill="white"/>
<path fill-rule="evenodd" clip-rule="evenodd" d="M24.2119 45.2533C23.2929 46.1783 21.7254 45.8433 21.2644 44.6238C20.8364 43.4918 21.6309 42.2683 22.8399 42.2008L25.5179 42.0493C26.2179 42.0103 26.5974 42.8543 26.1029 43.3513L24.2119 45.2533Z" fill="white"/>
<path fill-rule="evenodd" clip-rule="evenodd" d="M34.732 20.6474L34.2035 20.7759C31.4655 21.4424 29.906 24.3324 30.852 26.9874L32.009 30.2319C33.0075 33.0319 36.3025 34.2379 38.872 32.7429C41.199 31.3899 41.938 28.3759 40.5005 26.0994L37.8545 21.9104C37.193 20.8629 35.936 20.3544 34.732 20.6474Z" fill="white"/>
<path fill-rule="evenodd" clip-rule="evenodd" d="M21.0879 29.4916L17.2364 32.9241C16.1394 33.9021 16.2709 35.8601 17.5544 37.6521C18.7954 39.3846 20.8049 40.5291 22.4689 40.4511L25.8274 40.2936C28.0364 40.1901 28.8044 38.0091 27.4734 35.6186L24.9549 31.0951C24.0604 29.4876 22.0354 28.6481 21.0879 29.4916Z" fill="white"/>
<mask id="mask2" mask-type="alpha" maskUnits="userSpaceOnUse" x="13" y="43" width="8" height="9">
<path fill-rule="evenodd" clip-rule="evenodd" d="M13.086 43.7681H20.4795V51.4637H13.086V43.7681Z" fill="white"/>
</mask>
<g mask="url(#mask2)">
<path fill-rule="evenodd" clip-rule="evenodd" d="M20.2222 47.3749C20.7552 48.5534 20.4412 49.9439 19.4537 50.7794C18.2987 51.7559 16.5867 51.6789 15.5242 50.6034L13.9227 48.9829C12.4637 47.5064 12.9867 45.0194 14.9172 44.2554C16.4517 43.2644 18.5067 43.8399 19.3042 45.4834L20.2222 47.3749Z" fill="white"/>
</g>
<mask id="mask3" mask-type="alpha" maskUnits="userSpaceOnUse" x="8" y="35" width="8" height="10">
<path fill-rule="evenodd" clip-rule="evenodd" d="M8 35.7155H15.787V44.1092H8V35.7155Z" fill="white"/>
</mask>
<g mask="url(#mask3)">
<path fill-rule="evenodd" clip-rule="evenodd" d="M14.4863 35.8525L15.5363 38.3815C16.2488 40.099 15.3883 42.0645 13.6423 42.7045L10.0673 44.015C9.40483 44.258 8.66233 44.019 8.26583 43.435C7.85333 42.828 7.92733 42.0145 8.44233 41.4915L14.1333 35.7155L14.4863 35.8525Z" fill="white"/>
</g>
<path fill-rule="evenodd" clip-rule="evenodd" d="M26.2187 19.8954C26.7177 19.4664 27.5527 20.1954 27.8597 21.3279L28.7262 24.5259C29.2292 26.3834 28.5372 27.7774 27.3917 27.2139L25.5367 26.8724C25.0057 26.7749 24.5262 26.4589 24.2757 25.9804C23.6977 24.8754 23.5252 23.0404 24.0522 22.4259L26.2187 19.8954Z" fill="white"/>
<path fill-rule="evenodd" clip-rule="evenodd" d="M20.1836 26.7333C22.4156 26.2408 23.1551 24.2273 21.4851 23.1913L18.6891 21.4563C16.9396 20.3703 14.0526 21.2618 13.8041 22.9643L13.5801 24.4978C13.4146 25.6318 14.5731 26.5853 16.1691 26.6273L20.1836 26.7333Z" fill="white"/>
<path fill-rule="evenodd" clip-rule="evenodd" d="M13.8267 16.8495L13.7152 16.4085C13.1382 14.1205 14.8472 12.093 17.3882 12.0515L20.4937 12.0005C23.1732 11.9565 25.4972 14.1305 25.3337 16.5275C25.1852 18.6985 23.0402 20.1335 20.6067 19.691L16.1267 18.875C15.0062 18.671 14.0807 17.856 13.8267 16.8495Z" fill="white"/>
<path fill-rule="evenodd" clip-rule="evenodd" d="M31.8096 14.5292L31.8976 15.4167C32.0371 16.8267 31.5181 18.1882 30.6791 18.6142L29.7111 19.1047C28.9856 19.4732 28.1956 19.0452 27.7511 18.0432C27.2366 16.8847 27.3251 15.2882 27.9581 14.2967L28.8386 12.9177C29.8656 11.3087 31.5831 12.2397 31.8096 14.5292Z" fill="white"/>
<path fill-rule="evenodd" clip-rule="evenodd" d="M43.3814 33.4433L43.6489 33.4688C45.9684 33.6888 47.8199 36.1138 47.9069 39.0433L47.9864 41.7233C48.0764 44.7693 46.2314 47.2798 43.8229 47.3878C41.1544 47.5078 38.9319 44.6538 39.0744 41.2908L39.1849 38.6678C39.2924 36.1358 40.7329 34.0598 42.7014 33.6013L43.3814 33.4433Z" fill="white"/>
<path fill-rule="evenodd" clip-rule="evenodd" d="M35.2134 47.2397L37.2729 46.7057C38.0129 46.5137 38.4699 45.7722 38.3089 45.0252L36.4919 36.5567C36.3204 35.7592 35.5164 35.2677 34.7284 35.4782C34.1184 35.6412 33.6879 36.1862 33.6709 36.8177L33.4294 45.8207C33.4039 46.7697 34.2944 47.4782 35.2134 47.2397Z" fill="white"/>
</g>
</svg>
